<?xml version="1.0" standalone="no"?><svg xmlns="http://www.w3.org/2000/svg" viewBox="0 0 1440 320"><path fill="#ff5500" fill-opacity="1" d="M0,160L0,96L41.1,96L41.1,128L82.3,128L82.3,192L123.4,192L123.4,224L164.6,224L164.6,0L205.7,0L205.7,224L246.9,224L246.9,160L288,160L288,64L329.1,64L329.1,192L370.3,192L370.3,288L411.4,288L411.4,256L452.6,256L452.6,160L493.7,160L493.7,32L534.9,32L534.9,160L576,160L576,128L617.1,128L617.1,64L658.3,64L658.3,64L699.4,64L699.4,160L740.6,160L740.6,160L781.7,160L781.7,192L822.9,192L822.9,192L864,192L864,0L905.1,0L905.1,192L946.3,192L946.3,256L987.4,256L987.4,288L1028.6,288L1028.6,192L1069.7,192L1069.7,32L1110.9,32L1110.9,32L1152,32L1152,288L1193.1,288L1193.1,160L1234.3,160L1234.3,256L1275.4,256L1275.4,192L1316.6,192L1316.6,96L1357.7,96L1357.7,160L1398.9,160L1398.9,32L1440,32L1440,320L1398.9,320L1398.9,320L1357.7,320L1357.7,320L1316.6,320L1316.6,320L1275.4,320L1275.4,320L1234.3,320L1234.3,320L1193.1,320L1193.1,320L1152,320L1152,320L1110.9,320L1110.9,320L1069.7,320L1069.7,320L1028.6,320L1028.6,320L987.4,320L987.4,320L946.3,320L946.3,320L905.1,320L905.1,320L864,320L864,320L822.9,320L822.9,320L781.7,320L781.7,320L740.6,320L740.6,320L699.4,320L699.4,320L658.3,320L658.3,320L617.1,320L617.1,320L576,320L576,320L534.9,320L534.9,320L493.7,320L493.7,320L452.6,320L452.6,320L411.4,320L411.4,320L370.3,320L370.3,320L329.1,320L329.1,320L288,320L288,320L246.9,320L246.9,320L205.7,320L205.7,320L164.6,320L164.6,320L123.4,320L123.4,320L82.3,320L82.3,320L41.1,320L41.1,320L0,320L0,320Z"></path></svg>